<svg width="185" height="60" viewBox="0 0 185 60" fill="none" xmlns="http://www.w3.org/2000/svg">
<path d="M67.5303 42.753H58.421L56.9635 47.004H50.1619L59.5141 22.5911H66.4372L75.6679 47.004H68.8663L67.5303 42.753ZM65.8299 37.8947L63.0364 29.7571L60.2428 37.8947H65.8299Z" fill="white"/>
<path d="M78.0972 30.3642H83.9271V33.0363C84.5344 32.0647 85.2632 31.3359 86.2348 30.7286C87.2065 30.1213 88.1781 29.8784 89.3927 29.8784C89.5142 29.8784 89.7571 29.8784 89.8785 29.8784C90.1215 29.8784 90.2429 29.8784 90.4858 29.9999V35.5869C89.7571 35.2225 88.9069 34.9796 87.9352 34.9796C86.5992 34.9796 85.5061 35.344 84.8988 36.1942C84.17 37.0444 83.9271 38.1375 83.9271 39.7165V46.8825H78.0972V30.3642Z" fill="white"/>
<path d="M106.032 30.3642H111.862V47.0039H106.032V45.1821C104.818 46.761 103.117 47.4897 100.931 47.4897C99.7165 47.4897 98.6234 47.2468 97.6518 46.8825C96.6801 46.3966 95.7084 45.7893 94.9797 45.0606C94.2509 44.2104 93.6437 43.3602 93.1578 42.2671C92.7935 41.174 92.5505 39.9594 92.5505 38.7448C92.5505 37.5302 92.7935 36.4371 93.1578 35.344C93.5222 34.2509 94.1295 33.4007 94.8582 32.5505C95.587 31.7003 96.4372 31.093 97.5303 30.6072C98.6234 30.1213 99.7165 29.8784 100.931 29.8784C102.996 29.8784 104.696 30.6072 106.032 32.0647V30.3642ZM98.6234 38.6234C98.6234 39.1092 98.7449 39.7165 98.8663 40.0808C99.1092 40.5667 99.3522 40.931 99.7165 41.2954C100.081 41.6598 100.445 41.9027 100.931 42.1456C101.417 42.3885 101.903 42.3885 102.389 42.3885C102.874 42.3885 103.36 42.2671 103.846 42.1456C104.332 41.9027 104.696 41.6598 105.061 41.2954C105.425 40.931 105.668 40.5667 105.911 40.0808C106.154 39.595 106.275 39.1092 106.275 38.6234C106.275 38.1375 106.154 37.6517 105.911 37.1659C105.668 36.68 105.425 36.3157 105.061 35.9513C104.696 35.5869 104.332 35.344 103.846 35.1011C103.36 34.8582 102.874 34.8582 102.389 34.8582C101.903 34.8582 101.295 34.9796 100.931 35.1011C100.445 35.344 100.081 35.5869 99.7165 35.9513C99.3522 36.3157 99.1092 36.68 98.8663 37.1659C98.7449 37.6517 98.6234 38.1375 98.6234 38.6234Z" fill="white"/>
<path d="M126.923 34.6154C125.83 34.0081 124.737 33.7652 123.765 33.7652C123.279 33.7652 122.793 33.8866 122.429 34.1296C122.065 34.3725 121.943 34.6154 121.943 34.9798C121.943 35.2227 121.943 35.3441 122.065 35.4656C122.186 35.587 122.186 35.7085 122.429 35.83C122.672 35.9514 122.915 36.0729 123.279 36.0729C123.644 36.1943 124.129 36.3158 124.737 36.4372C126.316 36.8016 127.53 37.2874 128.38 38.1376C129.231 38.9878 129.595 40.081 129.595 41.2955C129.595 42.2672 129.352 43.1174 128.988 43.9676C128.623 44.6964 128.016 45.4251 127.409 45.9109C126.68 46.3968 125.83 46.8826 124.98 47.1255C124.129 47.3684 122.915 47.6113 121.822 47.6113C119.636 47.6113 117.328 47.004 115.142 45.668L117.328 41.5385C118.907 42.6316 120.486 43.2389 121.943 43.2389C122.429 43.2389 122.915 43.1174 123.279 42.8745C123.644 42.6316 123.765 42.3887 123.765 42.0243C123.765 41.7814 123.765 41.6599 123.644 41.5385C123.644 41.417 123.522 41.2955 123.279 41.1741C123.158 41.0526 122.793 40.9312 122.551 40.8097C122.186 40.6883 121.822 40.5668 121.214 40.4453C119.393 40.081 118.178 39.5951 117.449 38.8664C116.721 38.1376 116.356 37.166 116.356 35.83C116.356 34.8583 116.478 34.0081 116.842 33.2793C117.206 32.5506 117.692 31.9433 118.299 31.336C118.907 30.7287 119.757 30.3644 120.607 30.1215C121.579 29.8785 122.551 29.7571 123.644 29.7571C125.465 29.7571 127.287 30.1215 128.988 30.8502L126.923 34.6154Z" fill="white"/>
<path d="M132.631 20.1619H138.461V32.5505C139.312 31.5789 140.04 30.9716 140.89 30.6072C141.741 30.2428 142.712 30.1214 143.805 30.1214C145.87 30.1214 147.449 30.7287 148.542 31.8218C149.635 33.0364 150.121 34.4938 150.121 36.4372V47.004H144.291V38.6234C144.291 37.7732 144.17 37.0445 144.048 36.5586C143.927 36.0728 143.684 35.587 143.441 35.3441C142.955 34.8582 142.348 34.6153 141.619 34.6153C140.648 34.6153 139.919 34.8582 139.312 35.4655C138.826 36.0728 138.461 36.923 138.461 38.0161V46.8825H132.631V20.1619Z" fill="white"/>
<path d="M167.004 30.3642H172.834V47.0039H167.004V45.1821C165.789 46.761 164.089 47.4897 161.903 47.4897C160.688 47.4897 159.595 47.2468 158.623 46.8825C157.652 46.3966 156.68 45.7893 155.951 45.0606C155.223 44.2104 154.615 43.3602 154.13 42.2671C153.765 41.174 153.522 39.9594 153.522 38.7448C153.522 37.5302 153.765 36.4371 154.13 35.344C154.494 34.2509 155.101 33.4007 155.83 32.5505C156.559 31.7003 157.409 31.093 158.502 30.6072C159.595 30.1213 160.688 29.8784 161.903 29.8784C163.968 29.8784 165.668 30.6072 167.004 32.0647V30.3642ZM159.595 38.6234C159.595 39.1092 159.717 39.7165 159.838 40.0808C160.081 40.5667 160.324 40.931 160.688 41.2954C161.053 41.6598 161.417 41.9027 161.903 42.1456C162.389 42.3885 162.874 42.3885 163.36 42.3885C163.846 42.3885 164.332 42.2671 164.818 42.1456C165.304 41.9027 165.668 41.6598 166.032 41.2954C166.397 40.931 166.64 40.5667 166.883 40.0808C167.125 39.595 167.247 39.1092 167.247 38.6234C167.247 38.1375 167.125 37.6517 166.883 37.1659C166.64 36.68 166.397 36.3157 166.032 35.9513C165.668 35.5869 165.304 35.344 164.818 35.1011C164.332 34.8582 163.846 34.8582 163.36 34.8582C162.874 34.8582 162.267 34.9796 161.903 35.1011C161.417 35.344 161.053 35.5869 160.688 35.9513C160.324 36.3157 160.081 36.68 159.838 37.1659C159.717 37.6517 159.595 38.1375 159.595 38.6234Z" fill="white"/>
<path d="M176.72 43.8462C176.72 43.3604 176.842 42.8746 176.963 42.3887C177.206 41.9029 177.449 41.5385 177.814 41.1742C178.178 40.8098 178.542 40.5669 179.028 40.324C179.514 40.0811 180 40.0811 180.486 40.0811C180.971 40.0811 181.457 40.2025 181.943 40.324C182.429 40.5669 182.793 40.8098 183.158 41.1742C183.522 41.5385 183.765 41.9029 184.008 42.3887C184.251 42.8746 184.251 43.3604 184.251 43.8462C184.251 44.3321 184.129 44.8179 184.008 45.3037C183.765 45.7896 183.522 46.1539 183.158 46.5183C182.793 46.8827 182.429 47.1256 181.943 47.3685C181.457 47.6114 180.971 47.6114 180.486 47.6114C180 47.6114 179.514 47.49 179.028 47.3685C178.542 47.1256 178.178 46.8827 177.814 46.5183C177.449 46.1539 177.206 45.7896 176.963 45.3037C176.842 44.9394 176.72 44.4535 176.72 43.8462Z" fill="#E41F24"/>
<path d="M22.4698 20.769L18.4617 36.0727L25.992 35.4654L22.4698 20.769Z" fill="#E41F24"/>
<path d="M15.9108 46.0324L13.4817 55.3846L29.5141 50.0405L27.9351 43.3604L15.9108 46.0324Z" fill="#E41F24"/>
<path d="M10.8098 17.8542C11.9029 18.8258 12.5102 20.5262 12.3887 21.9837L17.0041 7.65173C17.0041 7.53027 17.0041 7.40881 17.1256 7.28735C16.7612 8.38047 15.4252 8.8663 14.575 8.98776C14.8179 10.3238 14.575 12.0242 13.6033 13.2388C11.66 15.5465 8.86647 14.8177 8.01626 12.8744C9.59521 13.9675 11.5385 12.51 10.8098 10.6882C9.71667 9.23067 7.53043 9.47359 6.31586 11.0525C6.1944 9.95942 5.70857 8.62339 4.61546 7.65173C4.25108 8.98776 3.88671 10.9311 5.3442 12.9959C7.04461 15.3035 10.081 17.004 13.3604 15.5465C12.6316 17.004 11.7814 17.4898 10.8098 17.8542Z" fill="#E41F24"/>
<path d="M7.77336 26.2348C3.27943 25.2631 5.70858 21.3765 5.70858 21.3765C5.70858 21.3765 3.76526 21.1336 2.7936 22.7125C1.9434 23.9271 2.30777 26.3562 4.494 27.4494C5.70858 28.0566 9.23085 28.1781 9.23085 28.1781C9.23085 28.1781 8.01627 30.8502 8.86647 32.5506L11.2956 25.1417C10.4454 25.8704 8.86647 26.4777 7.77336 26.2348Z" fill="#E41F24"/>
<path d="M6.31579 31.336C6.5587 29.8785 7.77328 29.0283 7.77328 29.0283C7.77328 29.0283 2.79352 29.6356 1.21457 26.2348C-0.242915 22.9555 2.42915 18.2186 6.68016 19.0688C8.98785 19.5547 10.081 21.1336 10.081 21.1336C10.081 21.1336 7.65182 21.2551 7.16599 22.2267C6.5587 23.8057 8.25911 24.8988 9.59514 24.17C10.8097 23.4413 12.0243 20.6478 9.47368 18.4615C8.25911 17.3684 6.68016 16.8826 5.46559 16.0324C4.12955 15.0607 2.91498 13.7247 2.55061 12.0243C1.94332 9.35223 3.03644 6.68016 2.42915 4.0081C2.30769 3.64372 2.18623 3.27935 2.06478 3.03644C1.94332 2.79352 1.7004 2.18623 1.45749 2.06478C5.58704 3.03644 6.43725 5.34413 6.68016 8.25911C10.4453 5.34413 13.4818 8.38057 17.1255 7.04453C17.1255 7.04453 17.1255 7.04453 17.1255 7.16599L17.4899 5.95142L0 0V60L7.53036 36.6802C7.28745 36.1943 6.07287 32.915 6.31579 31.336Z" fill="#E41F24"/>
<path d="M26.7207 8.98779L35.83 47.8542V12.1457L26.7207 8.98779Z" fill="#E41F24"/>
</svg>
