<svg width="185" height="60" viewBox="0 0 185 60" fill="none" xmlns="http://www.w3.org/2000/svg">
<path d="M67.5305 42.7531H58.4212L56.9637 47.0041H50.1621L59.5143 22.5911H66.4374L75.6682 47.0041H68.8666L67.5305 42.7531ZM65.8301 37.8948L63.0366 29.7571L60.2431 37.8948H65.8301Z" fill="#1D1D1B"/>
<path d="M78.0972 30.3644H83.9271V33.0364C84.5344 32.0648 85.2632 31.336 86.2348 30.7287C87.2065 30.1214 88.1781 29.8785 89.3927 29.8785C89.5142 29.8785 89.7571 29.8785 89.8785 29.8785C90.1215 29.8785 90.2429 29.8785 90.4858 30V35.587C89.7571 35.2227 88.9069 34.9797 87.9352 34.9797C86.5992 34.9797 85.5061 35.3441 84.8988 36.1943C84.17 37.0445 83.9271 38.1376 83.9271 39.7166V46.8826H78.0972V30.3644Z" fill="#1D1D1B"/>
<path d="M106.033 30.3644H111.863V47.004H106.033V45.1822C104.818 46.7611 103.118 47.4899 100.931 47.4899C99.7168 47.4899 98.6237 47.247 97.652 46.8826C96.6803 46.3968 95.7087 45.7895 94.9799 45.0607C94.2512 44.2105 93.6439 43.3603 93.1581 42.2672C92.7937 41.1741 92.5508 39.9595 92.5508 38.7449C92.5508 37.5304 92.7937 36.4372 93.1581 35.3441C93.5224 34.251 94.1297 33.4008 94.8585 32.5506C95.5872 31.7004 96.4374 31.0931 97.5305 30.6073C98.6237 30.1215 99.7168 29.8785 100.931 29.8785C102.996 29.8785 104.697 30.6073 106.033 32.0648V30.3644ZM98.6237 38.6235C98.6237 39.1093 98.7451 39.7166 98.8666 40.081C99.1095 40.5668 99.3524 40.9312 99.7168 41.2955C100.081 41.6599 100.446 41.9028 100.931 42.1457C101.417 42.3887 101.903 42.3887 102.389 42.3887C102.875 42.3887 103.361 42.2672 103.846 42.1457C104.332 41.9028 104.697 41.6599 105.061 41.2955C105.425 40.9312 105.668 40.5668 105.911 40.081C106.154 39.5951 106.275 39.1093 106.275 38.6235C106.275 38.1376 106.154 37.6518 105.911 37.166C105.668 36.6802 105.425 36.3158 105.061 35.9514C104.697 35.587 104.332 35.3441 103.846 35.1012C103.361 34.8583 102.875 34.8583 102.389 34.8583C101.903 34.8583 101.296 34.9797 100.931 35.1012C100.446 35.3441 100.081 35.587 99.7168 35.9514C99.3524 36.3158 99.1095 36.6802 98.8666 37.166C98.7451 37.6518 98.6237 38.1376 98.6237 38.6235Z" fill="#1D1D1B"/>
<path d="M126.923 34.6154C125.83 34.0081 124.737 33.7652 123.765 33.7652C123.279 33.7652 122.793 33.8867 122.429 34.1296C122.065 34.3725 121.943 34.6154 121.943 34.9798C121.943 35.2227 121.943 35.3441 122.065 35.4656C122.186 35.5871 122.186 35.7085 122.429 35.83C122.672 35.9514 122.915 36.0729 123.279 36.0729C123.644 36.1944 124.129 36.3158 124.737 36.4373C126.316 36.8016 127.53 37.2875 128.38 38.1377C129.231 38.9879 129.595 40.081 129.595 41.2956C129.595 42.2672 129.352 43.1174 128.988 43.9676C128.623 44.6964 128.016 45.4251 127.409 45.9109C126.68 46.3968 125.83 46.8826 124.98 47.1255C124.129 47.3684 122.915 47.6114 121.822 47.6114C119.636 47.6114 117.328 47.0041 115.142 45.668L117.328 41.5385C118.907 42.6316 120.486 43.2389 121.943 43.2389C122.429 43.2389 122.915 43.1174 123.279 42.8745C123.644 42.6316 123.765 42.3887 123.765 42.0243C123.765 41.7814 123.765 41.6599 123.644 41.5385C123.644 41.417 123.522 41.2956 123.279 41.1741C123.158 41.0527 122.793 40.9312 122.551 40.8097C122.186 40.6883 121.822 40.5668 121.214 40.4454C119.393 40.081 118.178 39.5952 117.449 38.8664C116.721 38.1377 116.356 37.166 116.356 35.83C116.356 34.8583 116.478 34.0081 116.842 33.2794C117.206 32.5506 117.692 31.9433 118.299 31.336C118.907 30.7288 119.757 30.3644 120.607 30.1215C121.579 29.8786 122.551 29.7571 123.644 29.7571C125.465 29.7571 127.287 30.1215 128.988 30.8502L126.923 34.6154Z" fill="#1D1D1B"/>
<path d="M132.632 20.1619H138.462V32.5506C139.312 31.5789 140.041 30.9716 140.891 30.6073C141.741 30.2429 142.713 30.1214 143.806 30.1214C145.871 30.1214 147.45 30.7287 148.543 31.8218C149.636 33.0364 150.122 34.4939 150.122 36.4372V47.004H144.292V38.6234C144.292 37.7732 144.17 37.0445 144.049 36.5587C143.927 36.0728 143.684 35.587 143.442 35.3441C142.956 34.8583 142.348 34.6154 141.62 34.6154C140.648 34.6154 139.919 34.8583 139.312 35.4656C138.826 36.0728 138.462 36.923 138.462 38.0162V46.8826H132.632V20.1619Z" fill="#1D1D1B"/>
<path d="M167.004 30.3644H172.834V47.004H167.004V45.1822C165.79 46.7611 164.089 47.4899 161.903 47.4899C160.688 47.4899 159.595 47.247 158.624 46.8826C157.652 46.3968 156.68 45.7895 155.952 45.0607C155.223 44.2105 154.616 43.3603 154.13 42.2672C153.765 41.1741 153.522 39.9595 153.522 38.7449C153.522 37.5304 153.765 36.4372 154.13 35.3441C154.494 34.251 155.101 33.4008 155.83 32.5506C156.559 31.7004 157.409 31.0931 158.502 30.6073C159.595 30.1215 160.688 29.8785 161.903 29.8785C163.968 29.8785 165.668 30.6073 167.004 32.0648V30.3644ZM159.595 38.6235C159.595 39.1093 159.717 39.7166 159.838 40.081C160.081 40.5668 160.324 40.9312 160.688 41.2955C161.053 41.6599 161.417 41.9028 161.903 42.1457C162.389 42.3887 162.875 42.3887 163.361 42.3887C163.846 42.3887 164.332 42.2672 164.818 42.1457C165.304 41.9028 165.668 41.6599 166.033 41.2955C166.397 40.9312 166.64 40.5668 166.883 40.081C167.126 39.5951 167.247 39.1093 167.247 38.6235C167.247 38.1376 167.126 37.6518 166.883 37.166C166.64 36.6802 166.397 36.3158 166.033 35.9514C165.668 35.587 165.304 35.3441 164.818 35.1012C164.332 34.8583 163.846 34.8583 163.361 34.8583C162.875 34.8583 162.267 34.9797 161.903 35.1012C161.417 35.3441 161.053 35.587 160.688 35.9514C160.324 36.3158 160.081 36.6802 159.838 37.166C159.717 37.6518 159.595 38.1376 159.595 38.6235Z" fill="#1D1D1B"/>
<path d="M176.721 43.8462C176.721 43.3603 176.842 42.8745 176.964 42.3887C177.207 41.9029 177.449 41.5385 177.814 41.1741C178.178 40.8097 178.543 40.5668 179.028 40.3239C179.514 40.081 180 40.081 180.486 40.081C180.972 40.081 181.458 40.2025 181.943 40.3239C182.429 40.5668 182.794 40.8097 183.158 41.1741C183.522 41.5385 183.765 41.9029 184.008 42.3887C184.251 42.8745 184.251 43.3603 184.251 43.8462C184.251 44.332 184.13 44.8178 184.008 45.3037C183.765 45.7895 183.522 46.1539 183.158 46.5182C182.794 46.8826 182.429 47.1255 181.943 47.3684C181.458 47.6114 180.972 47.6114 180.486 47.6114C180 47.6114 179.514 47.4899 179.028 47.3684C178.543 47.1255 178.178 46.8826 177.814 46.5182C177.449 46.1539 177.207 45.7895 176.964 45.3037C176.842 44.9393 176.721 44.4535 176.721 43.8462Z" fill="#E61918"/>
<path d="M22.4695 20.7692L18.4614 36.0729L25.9918 35.4656L22.4695 20.7692Z" fill="#E61918"/>
<path d="M15.9111 46.0324L13.4819 55.3847L29.5143 50.0405L27.9354 43.3604L15.9111 46.0324Z" fill="#E61918"/>
<path d="M10.8098 17.8542C11.9029 18.8259 12.5102 20.5263 12.3887 21.9838L17.0041 7.65179C17.0041 7.53034 17.0041 7.40888 17.1256 7.28742C16.7612 8.38054 15.4252 8.86637 14.575 8.98783C14.8179 10.3239 14.575 12.0243 13.6033 13.2388C11.66 15.5465 8.86647 14.8178 8.01626 12.8745C9.59521 13.9676 11.5385 12.5101 10.8098 10.6882C9.71667 9.23074 7.53043 9.47366 6.31586 11.0526C6.1944 9.95949 5.70857 8.62345 4.61546 7.65179C4.25108 8.98783 3.88671 10.9311 5.3442 12.9959C7.04461 15.3036 10.081 17.004 13.3604 15.5465C12.6316 17.004 11.7814 17.4899 10.8098 17.8542Z" fill="#E61918"/>
<path d="M7.77311 26.2348C3.27919 25.2631 5.70833 21.3765 5.70833 21.3765C5.70833 21.3765 3.76502 21.1336 2.79336 22.7125C1.94315 23.9271 2.30753 26.3563 4.49376 27.4494C5.70833 28.0567 9.2306 28.1781 9.2306 28.1781C9.2306 28.1781 8.01603 30.8502 8.86623 32.5506L11.2954 25.1417C10.4452 25.8704 8.86623 26.4777 7.77311 26.2348Z" fill="#E61918"/>
<path d="M6.31579 31.336C6.5587 29.8785 7.77328 29.0283 7.77328 29.0283C7.77328 29.0283 2.79352 29.6356 1.21457 26.2348C-0.242915 22.9555 2.42915 18.2186 6.68016 19.0688C8.98785 19.5547 10.081 21.1336 10.081 21.1336C10.081 21.1336 7.65182 21.2551 7.16599 22.2267C6.5587 23.8057 8.25911 24.8988 9.59514 24.17C10.8097 23.4413 12.0243 20.6478 9.47368 18.4615C8.25911 17.3684 6.68016 16.8826 5.46559 16.0324C4.12955 15.0607 2.91498 13.7247 2.55061 12.0243C1.94332 9.35223 3.03644 6.68016 2.42915 4.0081C2.30769 3.64372 2.18623 3.27935 2.06478 3.03644C1.94332 2.79352 1.7004 2.18623 1.45749 2.06478C5.58704 3.03644 6.43725 5.34413 6.68016 8.25911C10.4453 5.34413 13.4818 8.38057 17.1255 7.04453C17.1255 7.04453 17.1255 7.04453 17.1255 7.16599L17.4899 5.95142L0 0V60L7.53036 36.6802C7.28745 36.1943 6.07287 32.915 6.31579 31.336Z" fill="#E61918"/>
<path d="M26.7207 8.98786L35.83 47.8543V12.1458L26.7207 8.98786Z" fill="#E61918"/>
</svg>
