<svg width="10" height="19" viewBox="0 0 10 19" fill="none" xmlns="http://www.w3.org/2000/svg">
<path d="M9.62343 0.00384845L7.22488 0C4.5302 0 2.78878 1.78664 2.78878 4.55194V6.65069H0.377148C0.168755 6.65069 0 6.81964 0 7.02804V10.0689C0 10.2773 0.168947 10.446 0.377148 10.446H2.78878V18.1191C2.78878 18.3275 2.95753 18.4962 3.16593 18.4962H6.31242C6.52081 18.4962 6.68957 18.3273 6.68957 18.1191V10.446H9.50932C9.71772 10.446 9.88647 10.2773 9.88647 10.0689L9.88763 7.02804C9.88763 6.92798 9.84779 6.83215 9.77718 6.76134C9.70656 6.69053 9.61034 6.65069 9.51029 6.65069H6.68957V4.87156C6.68957 4.01643 6.89334 3.58233 8.00727 3.58233L9.62304 3.58175C9.83125 3.58175 10 3.4128 10 3.2046V0.380996C10 0.172988 9.83144 0.00423329 9.62343 0.00384845Z" fill="#E41F24"/>
</svg>
