<svg width="24" height="23" viewBox="0 0 24 23" fill="none" xmlns="http://www.w3.org/2000/svg">
<path d="M4.00002 5.26252V17.1639L16.06 11.2132L4.00002 5.26252ZM1.50402 0.116964L22.52 10.4859C22.6706 10.5605 22.7955 10.6671 22.8823 10.7951C22.9691 10.9231 23.0148 11.0682 23.0148 11.2158C23.0148 11.3634 22.9691 11.5084 22.8823 11.6364C22.7955 11.7645 22.6706 11.8711 22.52 11.9457L1.50402 22.3146C1.35161 22.3898 1.17837 22.4296 1.00191 22.4299C0.825444 22.4301 0.652032 22.3909 0.499282 22.3162C0.346531 22.2415 0.219882 22.1339 0.132195 22.0044C0.0445086 21.8749 -0.00109324 21.728 1.9901e-05 21.5788V0.846002C-3.2247e-05 0.697189 0.046343 0.550999 0.134462 0.422192C0.222581 0.293386 0.349325 0.186523 0.501896 0.112396C0.654466 0.0382683 0.827462 -0.0005003 1.00341 4.87455e-06C1.17937 0.000510049 1.35205 0.0419623 1.50402 0.116964Z" fill="white"/>
</svg>
