<svg width="35" height="27" viewBox="0 0 35 27" fill="none" xmlns="http://www.w3.org/2000/svg">
<path d="M13.5902 2.71659L11.8355 0C4.82055 3.06011 0 9.25139 0 16.1613C0 20.0901 1.08737 22.5145 3.10902 24.6743C4.38089 26.0326 6.39468 27 8.50269 27C12.2948 27 15.3724 23.9044 15.3724 20.0901C15.3724 16.4574 12.5813 13.5316 9.03656 13.1999C8.40848 13.1407 7.76469 13.1525 7.15624 13.2394V12.8761C7.17979 11.2099 7.51739 6.42819 12.864 3.13907L13.5902 2.71659ZM31.4631 0C24.4482 3.06011 19.6276 9.25139 19.6276 16.1613C19.6276 20.0901 20.715 22.5145 22.7367 24.6743C24.0085 26.0326 26.0223 27 28.1303 27C31.9224 27 35 23.9044 35 20.0901C35 16.4574 32.209 13.5316 28.6642 13.1999C28.0361 13.1407 27.3923 13.1525 26.7839 13.2394C26.7839 12.0035 26.67 6.2821 33.2178 2.71659L31.4631 0Z" fill="#FF0004"/>
</svg>
