<svg width="18" height="20" viewBox="0 0 18 20" fill="none" xmlns="http://www.w3.org/2000/svg">
<path d="M18 8.20169C16.2306 8.2058 14.5046 7.66934 13.0658 6.6681V13.6511C13.0654 14.9444 12.6587 16.2068 11.9004 17.2694C11.142 18.332 10.068 19.1442 8.82199 19.5974C7.576 20.0505 6.21739 20.1231 4.92784 19.8053C3.63828 19.4876 2.47925 18.7946 1.60571 17.8192C0.732175 16.8437 0.185777 15.6323 0.0395762 14.3468C-0.106624 13.0613 0.154342 11.763 0.787581 10.6256C1.42082 9.48819 2.39615 8.56583 3.58315 7.98185C4.77015 7.39788 6.11224 7.18013 7.42997 7.35772V10.8699C6.82698 10.6855 6.17947 10.6911 5.57991 10.8858C4.98036 11.0805 4.45942 11.4544 4.09148 11.9541C3.72355 12.4539 3.52745 13.0538 3.53117 13.6684C3.53489 14.2829 3.73826 14.8806 4.11222 15.376C4.48618 15.8715 5.01161 16.2394 5.61348 16.4272C6.21536 16.6151 6.86289 16.6132 7.46361 16.4219C8.06433 16.2306 8.58752 15.8597 8.95846 15.3621C9.3294 14.8645 9.52912 14.2657 9.52911 13.6511V0H13.0658C13.0634 0.290363 13.0884 0.580329 13.1406 0.866235C13.2635 1.50447 13.519 2.11163 13.8916 2.65057C14.2641 3.1895 14.7458 3.64889 15.3073 4.00062C16.106 4.51407 17.0424 4.78774 18 4.78754V8.20169Z" fill="#E41F24"/>
</svg>
