<svg width="25" height="14" viewBox="0 0 25 14" fill="none" xmlns="http://www.w3.org/2000/svg">
<path fill-rule="evenodd" clip-rule="evenodd" d="M12.012 0C4.075 0 0 6.76602 0 6.76602C0 6.76602 3.075 13.532 12.012 13.532C20.105 13.532 24.023 6.79224 24.023 6.79224C24.023 6.79224 20.074 0 12.012 0ZM12.03 10.9948C9.128 10.9948 7.03 9.14427 7.03 6.76602C7.03 4.38692 9.128 2.53726 12.03 2.53726C14.932 2.53726 17.03 4.38692 17.03 6.76602C17.03 9.14427 14.932 10.9948 12.03 10.9948ZM12.03 4.22876C10.372 4.2313 9.03 5.40689 9.03 6.76602C9.03 8.1243 10.372 9.30328 12.03 9.30328C13.688 9.30328 15.03 8.12345 15.03 6.76602C15.03 5.40605 13.688 4.22622 12.03 4.22876Z" fill="#969696"/>
</svg>
